<?xml version="1.0" encoding="utf-8"?>
<!-- Generator: Adobe Illustrator 24.1.0, SVG Export Plug-In . SVG Version: 6.00 Build 0)  -->
<svg version="1.1" id="weather_icons" xmlns="http://www.w3.org/2000/svg" xmlns:xlink="http://www.w3.org/1999/xlink" x="0px"
	 y="0px" viewBox="0 0 249.9 245.46" style="enable-background:new 0 0 249.9 245.46;" xml:space="preserve">
<style type="text/css">
	.st0{fill:none;stroke:#202020;stroke-width:7;stroke-linecap:round;stroke-linejoin:round;stroke-miterlimit:10;}
	.st1{fill:#202020;}
	.st2{fill:none;stroke:#202020;stroke-width:7;stroke-linecap:round;stroke-miterlimit:10;}
</style>
<g>
	<path class="st0" d="M170.09,126.46c-2.39-15.39-15.67-27.18-31.73-27.18c-2.26,0-4.47,0.24-6.6,0.69
		c-5.28-10.7-16.26-18.07-28.99-18.07c-17.86,0-32.34,14.48-32.34,32.34c0,0.5,0.05,0.99,0.07,1.48c-3.78-0.23-7.74,0.22-11.84,1.62
		c-12.54,4.27-21.55,15.78-22.14,29.01c-0.81,18.42,13.88,33.61,32.12,33.61h91.14c15.32,0,27.75-12.42,27.75-27.75
		C187.54,140.53,180.31,130.55,170.09,126.46z"/>
	<path class="st0" d="M108.47,165.07H68.65c-4.76,0-9.19-1.89-12.48-5.33c-3.29-3.43-4.98-7.96-4.77-12.73
		c0.15-3.48,1.44-6.79,3.56-9.52"/>
	<path class="st0" d="M139.68,85.85c-0.58-5.38-0.11-10.97,1.55-16.48c4.19-13.9,14.98-23.99,27.89-27.87
		c-1.97,3.09-3.54,6.5-4.65,10.18c-6.64,22.02,5.83,45.3,27.87,51.95c8.15,2.46,16.46,2.3,24.05,0
		c-6.68,10.64-17.83,17.62-30.11,19.16"/>
</g>
</svg>
