<?xml version="1.0" encoding="utf-8"?>
<!-- Generator: Adobe Illustrator 24.1.0, SVG Export Plug-In . SVG Version: 6.00 Build 0)  -->
<svg version="1.1" id="weather_icons" xmlns="http://www.w3.org/2000/svg" xmlns:xlink="http://www.w3.org/1999/xlink" x="0px"
	 y="0px" viewBox="0 0 273.2 244.85" style="enable-background:new 0 0 273.2 244.85;" xml:space="preserve">
<style type="text/css">
	.st0{fill:none;stroke:#202020;stroke-width:7;stroke-linecap:round;stroke-linejoin:round;stroke-miterlimit:10;}
	.st1{fill:#202020;}
	.st2{fill:none;stroke:#202020;stroke-width:7;stroke-linecap:round;stroke-miterlimit:10;}
</style>
<g>
	<path class="st0" d="M123.73,85.16c-5.54-4.47-12.58-7.16-20.26-7.16c-17.86,0-32.34,14.48-32.34,32.34c0,0.5,0.05,0.99,0.07,1.48
		c-3.78-0.23-7.74,0.22-11.84,1.62c-12.54,4.27-21.55,15.78-22.14,29.01c-0.81,18.42,13.88,33.61,32.12,33.61h91.14
		c10.64,0,19.89-5.99,24.54-14.79"/>
	<path class="st0" d="M219.47,105.88c-1.86-11.94-12.15-21.09-24.62-21.09c-1.76,0-3.47,0.19-5.12,0.53
		c-4.09-8.3-12.61-14.02-22.49-14.02c-13.86,0-25.09,11.23-25.09,25.09c0,0.39,0.04,0.77,0.06,1.15c-2.93-0.18-6.01,0.17-9.19,1.26
		c-9.73,3.31-16.72,12.25-17.18,22.51c-0.63,14.29,10.77,26.07,24.92,26.07h70.72c11.89,0,21.53-9.64,21.53-21.53
		C233.01,116.8,227.4,109.06,219.47,105.88z"/>
	<path class="st0" d="M109.91,161.18H70.09c-4.76,0-9.19-1.89-12.48-5.33c-3.29-3.43-4.98-7.96-4.77-12.73
		c0.15-3.48,1.44-6.79,3.56-9.52"/>
	<path class="st0" d="M188.24,133.6H150.4c-18.61,0-22.43-10.6-17.06-18.14"/>
	<line class="st0" x1="210.26" y1="133.6" x2="206.69" y2="133.6"/>
</g>
</svg>
