<?xml version="1.0" encoding="utf-8"?>
<!-- Generator: Adobe Illustrator 24.1.0, SVG Export Plug-In . SVG Version: 6.00 Build 0)  -->
<svg version="1.1" id="weather_icons" xmlns="http://www.w3.org/2000/svg" xmlns:xlink="http://www.w3.org/1999/xlink" x="0px"
	 y="0px" viewBox="0 0 204.2 218.85" style="enable-background:new 0 0 204.2 218.85;" xml:space="preserve">
<style type="text/css">
	.st0{fill:none;stroke:#202020;stroke-width:7;stroke-linecap:round;stroke-linejoin:round;stroke-miterlimit:10;}
	.st1{fill:#202020;}
	.st2{fill:none;stroke:#202020;stroke-width:7;stroke-linecap:round;stroke-miterlimit:10;}
</style>
<g>
	<path class="st0" d="M146.15,144.16H60.63c-4.76,0-9.19-1.89-12.48-5.33c-3.29-3.43-4.98-7.96-4.77-12.73
		c0.15-3.48,1.44-6.79,3.56-9.52"/>
	<g>
		<path class="st0" d="M59.27,159.05c-18.24,0-32.93-15.19-32.12-33.61c0.58-13.23,9.6-24.74,22.14-29.01
			c4.1-1.4,8.06-1.85,11.84-1.62c-0.02-0.5-0.07-0.98-0.07-1.48c0-17.86,14.48-32.34,32.34-32.34c12.73,0,23.71,7.38,28.99,18.07
			c2.13-0.45,4.34-0.69,6.6-0.69c16.06,0,29.33,11.79,31.73,27.18c10.22,4.09,17.45,14.07,17.45,25.75
			c0,15.32-12.42,27.75-27.75,27.75H59.27z"/>
	</g>
</g>
</svg>
