<?xml version="1.0" encoding="utf-8"?>
<!-- Generator: Adobe Illustrator 24.1.0, SVG Export Plug-In . SVG Version: 6.00 Build 0)  -->
<svg version="1.1" id="weather_icons" xmlns="http://www.w3.org/2000/svg" xmlns:xlink="http://www.w3.org/1999/xlink" x="0px"
	 y="0px" viewBox="0 0 187.57 186.57" style="enable-background:new 0 0 187.57 186.57;" xml:space="preserve">
<style type="text/css">
	.st0{fill:none;stroke:#202020;stroke-width:7;stroke-linecap:round;stroke-linejoin:round;stroke-miterlimit:10;}
	.st1{fill:#202020;}
	.st2{fill:none;stroke:#202020;stroke-width:7;stroke-linecap:round;stroke-miterlimit:10;}
</style>
<g>
	<path class="st0" d="M87.92,61.04c0,9.48-7.69,17.17-17.17,17.17c-9.48,0-17.17-7.69-17.17-17.17c0-9.48,17.17-34.39,17.17-34.39
		S87.92,51.56,87.92,61.04z"/>
	<path class="st0" d="M155.07,107.84c0,11.47-9.29,20.76-20.76,20.76c-11.47,0-20.76-9.29-20.76-20.76
		c0-11.47,20.76-41.58,20.76-41.58S155.07,96.38,155.07,107.84z"/>
	<path class="st0" d="M93.02,150.93c0,7.37-5.98,13.35-13.35,13.35c-7.37,0-13.35-5.98-13.35-13.35s13.35-26.74,13.35-26.74
		S93.02,143.55,93.02,150.93z"/>
</g>
</svg>
