<?xml version="1.0" encoding="utf-8"?>
<!-- Generator: Adobe Illustrator 24.1.0, SVG Export Plug-In . SVG Version: 6.00 Build 0)  -->
<svg version="1.1" id="weather_icons" xmlns="http://www.w3.org/2000/svg" xmlns:xlink="http://www.w3.org/1999/xlink" x="0px"
	 y="0px" viewBox="0 0 235.2 226.85" style="enable-background:new 0 0 235.2 226.85;" xml:space="preserve">
<style type="text/css">
	.st0{fill:none;stroke:#202020;stroke-width:7;stroke-linecap:round;stroke-linejoin:round;stroke-miterlimit:10;}
	.st1{fill:#202020;}
	.st2{fill:none;stroke:#202020;stroke-width:7;stroke-linecap:round;stroke-miterlimit:10;}
</style>
<g>
	<path class="st0" d="M80.95,130.19h-5.59c-4.76,0-9.19-1.89-12.48-5.33c-3.29-3.43-4.98-7.96-4.77-12.73
		c0.15-3.48,1.44-6.79,3.56-9.52"/>
	<g>
		<path class="st0" d="M165.41,145.49c15.32,0,27.75-12.42,27.75-27.75c0-11.68-7.23-21.66-17.45-25.75
			c-2.39-15.39-15.67-27.18-31.73-27.18c-2.26,0-4.47,0.24-6.6,0.69c-5.28-10.7-16.26-18.07-28.99-18.07
			c-17.86,0-32.34,14.48-32.34,32.34c0,0.5,0.05,0.99,0.07,1.48c-3.78-0.23-7.74,0.22-11.84,1.62
			c-12.54,4.27-21.55,15.78-22.14,29.01c-0.81,18.42,13.88,33.61,32.12,33.61h7.76"/>
	</g>
	<line class="st0" x1="151.88" y1="132.38" x2="141.49" y2="148.98"/>
	<line class="st0" x1="129.94" y1="132.38" x2="119.55" y2="148.98"/>
	<line class="st0" x1="81.05" y1="167.1" x2="70.65" y2="183.7"/>
	<line class="st0" x1="104.45" y1="167.1" x2="94.05" y2="183.7"/>
	<line class="st0" x1="127.85" y1="167.1" x2="117.45" y2="183.7"/>
	<line class="st0" x1="151.25" y1="167.1" x2="140.85" y2="183.7"/>
	<line class="st0" x1="108.01" y1="132.38" x2="97.61" y2="148.98"/>
</g>
</svg>
