<?xml version="1.0" encoding="utf-8"?>
<!-- Generator: Adobe Illustrator 24.1.0, SVG Export Plug-In . SVG Version: 6.00 Build 0)  -->
<svg version="1.1" id="weather_icons" xmlns="http://www.w3.org/2000/svg" xmlns:xlink="http://www.w3.org/1999/xlink" x="0px"
	 y="0px" viewBox="0 0 166.57 166.57" style="enable-background:new 0 0 166.57 166.57;" xml:space="preserve">
<style type="text/css">
	.st0{fill:none;stroke:#202020;stroke-width:7;stroke-linecap:round;stroke-linejoin:round;stroke-miterlimit:10;}
	.st1{fill:#202020;}
	.st2{fill:none;stroke:#202020;stroke-width:7;stroke-linecap:round;stroke-miterlimit:10;}
</style>
<g>
	<g>
		<line class="st0" x1="84.8" y1="73.27" x2="84.8" y2="45.55"/>
		<line class="st0" x1="84.79" y1="45.54" x2="70.75" y2="31.5"/>
		<line class="st0" x1="84.79" y1="45.54" x2="98.82" y2="31.5"/>
		<line class="st0" x1="84.8" y1="124.04" x2="84.8" y2="96.29"/>
		<line class="st0" x1="84.79" y1="124.03" x2="70.75" y2="138.07"/>
		<line class="st0" x1="84.79" y1="124.03" x2="98.82" y2="138.07"/>
		<line class="st0" x1="73.28" y1="84.79" x2="45.53" y2="84.79"/>
		<line class="st0" x1="45.54" y1="84.79" x2="31.5" y2="98.82"/>
		<line class="st0" x1="45.54" y1="84.79" x2="31.5" y2="70.75"/>
		<line class="st0" x1="124.04" y1="84.79" x2="96.29" y2="84.79"/>
		<line class="st0" x1="124.03" y1="84.79" x2="138.07" y2="98.82"/>
		<line class="st0" x1="124.03" y1="84.79" x2="138.07" y2="70.75"/>
	</g>
	<g>
		<line class="st0" x1="112.52" y1="57.04" x2="92.91" y2="76.65"/>
		<line class="st0" x1="112.54" y1="57.03" x2="112.54" y2="37.18"/>
		<line class="st0" x1="112.54" y1="57.03" x2="132.39" y2="57.03"/>
		<line class="st0" x1="76.68" y1="92.91" x2="57.05" y2="112.54"/>
		<line class="st0" x1="57.03" y1="112.54" x2="37.18" y2="112.54"/>
		<line class="st0" x1="57.03" y1="112.54" x2="57.03" y2="132.39"/>
		<line class="st0" x1="76.66" y1="76.65" x2="57.05" y2="57.04"/>
		<line class="st0" x1="57.03" y1="57.03" x2="37.18" y2="57.03"/>
		<line class="st0" x1="57.03" y1="57.03" x2="57.03" y2="37.18"/>
		<line class="st0" x1="112.52" y1="112.54" x2="92.91" y2="92.91"/>
		<line class="st0" x1="112.54" y1="112.54" x2="112.54" y2="132.39"/>
		<line class="st0" x1="112.54" y1="112.54" x2="132.39" y2="112.54"/>
	</g>
	<circle class="st0" cx="84.79" cy="84.79" r="11.51"/>
</g>
</svg>
