<?xml version="1.0" encoding="utf-8"?>
<!-- Generator: Adobe Illustrator 24.1.0, SVG Export Plug-In . SVG Version: 6.00 Build 0)  -->
<svg version="1.1" id="weather_icons" xmlns="http://www.w3.org/2000/svg" xmlns:xlink="http://www.w3.org/1999/xlink" x="0px"
	 y="0px" viewBox="0 0 244.2 236.85" style="enable-background:new 0 0 244.2 236.85;" xml:space="preserve">
<style type="text/css">
	.st0{fill:none;stroke:#202020;stroke-width:7;stroke-linecap:round;stroke-linejoin:round;stroke-miterlimit:10;}
	.st1{fill:#202020;}
	.st2{fill:none;stroke:#202020;stroke-width:7;stroke-linecap:round;stroke-miterlimit:10;}
</style>
<g>
	<path class="st0" d="M160.29,137.39h9.57c15.32,0,27.75-12.42,27.75-27.75c0-11.68-7.23-21.66-17.45-25.75
		c-2.39-15.39-15.67-27.18-31.73-27.18c-2.26,0-4.47,0.24-6.6,0.69c-5.28-10.7-16.26-18.07-28.99-18.07
		c-17.86,0-32.34,14.48-32.34,32.34c0,0.5,0.05,0.99,0.07,1.48c-3.78-0.23-7.74,0.22-11.84,1.62C56.2,79.04,47.18,90.55,46.6,103.79
		c-0.81,18.42,13.88,33.61,32.12,33.61h15.62"/>
	<path class="st0" d="M93.92,122.51h-15.2c-4.76,0-9.19-1.89-12.48-5.33c-3.29-3.43-4.98-7.96-4.77-12.73
		c0.15-3.48,1.44-6.79,3.56-9.52"/>
	<polygon class="st0" points="152.02,96.11 131.27,96.11 111.28,128.68 128.24,128.68 118.73,159.23 153.78,118.48 138.29,118.68 	
		"/>
	<path class="st0" d="M160.7,174c0,4.96-4.02,8.99-8.99,8.99c-4.96,0-8.99-4.02-8.99-8.99c0-4.96,8.99-18,8.99-18
		S160.7,169.04,160.7,174z"/>
	<path class="st0" d="M101.08,166.83c0,3.96-3.21,7.16-7.16,7.16c-3.96,0-7.16-3.21-7.16-7.16c0-3.96,7.16-14.35,7.16-14.35
		S101.08,162.87,101.08,166.83z"/>
	<path class="st0" d="M125.66,193.39c0,3.44-2.79,6.23-6.23,6.23c-3.44,0-6.23-2.79-6.23-6.23c0-3.44,6.23-12.49,6.23-12.49
		S125.66,189.95,125.66,193.39z"/>
</g>
</svg>
