<?xml version="1.0" encoding="utf-8"?>
<!-- Generator: Adobe Illustrator 24.1.0, SVG Export Plug-In . SVG Version: 6.00 Build 0)  -->
<svg version="1.1" id="weather_icons" xmlns="http://www.w3.org/2000/svg" xmlns:xlink="http://www.w3.org/1999/xlink" x="0px"
	 y="0px" viewBox="0 0 244.2 224.85" style="enable-background:new 0 0 244.2 224.85;" xml:space="preserve">
<style type="text/css">
	.st0{fill:none;stroke:#202020;stroke-width:7;stroke-linecap:round;stroke-linejoin:round;stroke-miterlimit:10;}
	.st1{fill:#202020;}
	.st2{fill:none;stroke:#202020;stroke-width:7;stroke-linecap:round;stroke-miterlimit:10;}
</style>
<g>
	<path class="st0" d="M43.28,105.89h69.51c9.45,0,17.11-7.66,17.11-17.11c0-8.94-6.83-17.05-15.61-17.05
		c-18.35,0-20.41,22.45-3.75,22.45"/>
	<path class="st0" d="M74.71,136.46h69.51c9.45,0,17.11,7.66,17.11,17.11c0,8.94-6.83,17.05-15.61,17.05
		c-12.51,0-17.45-10.44-14.04-17.08"/>
	<path class="st0" d="M169.48,97.72c-9.95,0.89-18.74-6.45-19.63-16.4c-1.12-12.43,8.06-23.42,20.49-24.54
		c15.54-1.4,29.28,10.07,30.67,25.62c1.74,19.43-12.59,36.59-32.02,38.34l-110.72,0.15"/>
</g>
</svg>
